<?xml version="1.0" encoding="utf-8"?>
<!-- Generator: Adobe Illustrator 19.0.0, SVG Export Plug-In . SVG Version: 6.00 Build 0)  -->
<svg version="1.1" id="Layer_1" xmlns="http://www.w3.org/2000/svg" xmlns:xlink="http://www.w3.org/1999/xlink" x="0px" y="0px"
	 viewBox="0 0 100 100" style="enable-background:new 0 0 100 100;" xml:space="preserve">
<g id="XMLID_2_">
	<path id="XMLID_62_" d="M97.3,19.4C90,32.6,76.2,45,65.6,54.7c-2.1,1.9-3.4,1.8-5.7,0.3c-6.2-4.3-10.2-10.1-12.8-17.3
		C46.3,35.7,70,21,72.6,19.5c7.6-4.6,19.2-11.2,23.8-10.7c5,0.5,3.5,5.4,3.2,6.1C98.9,16.4,98.2,17.9,97.3,19.4z"/>
	<path id="XMLID_60_" d="M32.2,57.8c2.9-5.1,5.6-9.8,8.3-14.6c0.4,0.1,0.8,0.1,1.2,0.2c2.9,7.6,7.7,13.5,14.6,17.8
		c0,0.4,0.1,0.7,0.1,1.1c-5.3,1.8-10.6,3.6-16,5.4c1.3,9.4-4.5,18.3-18.1,22.5C13.3,93,3.5,90.3,0,84.5c0.1-0.3,0.1-0.7,0.2-0.7
		c6.5-2.4,8.9-7.2,10.1-13.9c1.4-8.4,8.6-13.1,17.3-12.6C29.2,57.4,30.8,57.6,32.2,57.8z"/>
</g>
</svg>
