<?xml version="1.0" encoding="utf-8"?>
<!-- Generator: Adobe Illustrator 19.0.0, SVG Export Plug-In . SVG Version: 6.00 Build 0)  -->
<svg version="1.1" id="Layer_1" xmlns="http://www.w3.org/2000/svg" xmlns:xlink="http://www.w3.org/1999/xlink" x="0px" y="0px"
	 viewBox="0 0 100 100" style="enable-background:new 0 0 100 100;" xml:space="preserve">
<g id="XMLID_1_">
	<path id="XMLID_167_" d="M72.5,23.7c3.4,0.5,6.9,0.7,10.2,1.5c3.9,0.9,7.7,2.4,11.6,3.7c0.3,0.1,0.7,0.5,0.7,0.8c0,5.3,0,10.6,0,16
		c0,0.1-0.1,0.2-0.1,0.5c-12.5-8-26.2-11.7-41-10.6C39.1,36.6,26.2,42.3,14.8,52c0.1-0.3,0.2-0.6,0.4-0.9c6-8.3,13.6-15,22.7-19.8
		c7.6-4.1,15.8-6.4,24.4-7.3c0.9-0.1,1.7-0.2,2.6-0.2C67.4,23.7,70,23.7,72.5,23.7z"/>
	<path id="XMLID_164_" d="M57.1,56.5c0-2.7,0.7-5.1,3.3-6.5c2.8-1.6,7.3-1,9.3,1.1c1.7,1.8,2,4,1.8,6.4c-0.1,1.6-0.5,3.2-1.6,4.5
		c-2.2,2.4-5,2.5-7.9,1.9c-3-0.6-4.8-3-4.9-6.3C57.1,57.2,57.1,56.9,57.1,56.5z M66.4,56.7c-0.2-1-0.3-2-0.7-2.9
		c-0.2-0.5-0.9-1-1.4-1c-0.5,0-1.3,0.5-1.5,1c-0.8,1.9-0.8,4,0.1,5.9c0.2,0.4,1,0.9,1.4,0.8c0.5,0,1.2-0.5,1.4-1
		C66.2,58.6,66.2,57.7,66.4,56.7z"/>
	<path id="XMLID_161_" d="M39.8,54.3c0-2.1,0-3.9,0-5.9c1.6,0,3.1,0,4.7,0c0,5.1,0,10.2,0,15.4c-1.4,0-2.8,0-4.3,0
		c-0.1-0.4-0.1-0.8-0.1-0.9c-0.9,0.4-1.8,1.1-2.8,1.3c-1.9,0.3-3.4-0.8-4.1-2.6c-0.7-1.9-0.7-3.9-0.1-5.9
		C34,52.5,37.7,51.8,39.8,54.3z M39.9,58.5c-0.1-0.6-0.1-1.2-0.3-1.6c-0.2-0.3-0.6-0.7-1-0.8c-0.3,0-0.9,0.4-0.9,0.7
		c-0.1,1-0.1,2.1,0.1,3.1c0.2,0.8,1.2,0.8,1.6,0.1C39.8,59.5,39.8,58.9,39.9,58.5z"/>
	<path id="XMLID_160_" d="M12.7,53.4c-1.3-0.2-2.5-0.5-3.7-0.5c-2.4,0-4,1.7-3.8,4c0.1,1.1,0.1,2.3,1.2,3c0.6,0.4,1.4,0.4,2.1,0.5
		c0.1,0,0.4-0.4,0.4-0.7c0-1,0-2.1,0-3.2c0.8,0,1.5,0,2.2,0c0.7,0,1.4,0,2.2,0c0,2.2,0,4.3,0,6.4c0,0.2-0.3,0.6-0.5,0.6
		c-2.5,0.7-4.9,1-7.4,0.3c-4.3-1.1-5.9-5.1-5.1-9.2c0.6-3.2,3.1-5.3,6.9-5.5c1.6-0.1,3.2,0.2,4.8,0.3c0.6,0,0.9,0.4,0.8,1
		C12.7,51.5,12.7,52.5,12.7,53.4z"/>
	<path id="XMLID_159_" d="M77.1,63.8c-1.6,0-3.1,0-4.7,0c0-3.5,0-7,0-10.6c1.5,0,2.9,0,4.4,0c0,0.3,0.1,0.7,0.1,1.1
		c1.1-1.3,2.4-1.8,4-1.4c1.5,0.3,2.4,1.1,2.4,2.6c0.1,2.7,0,5.4,0,8.3c-1.5,0-3,0-4.7,0c0-0.7,0-1.3,0-2c0-1.5,0-2.9,0-4.4
		c0-0.5-0.1-1.2-0.8-1.1c-0.3,0.1-0.7,0.7-0.8,1.1c-0.1,1.7,0,3.5,0,5.2C77.1,63,77.1,63.4,77.1,63.8z"/>
	<path id="XMLID_158_" d="M19.4,53.1c0,1.8,0,3.6,0,5.4c0,0.4,0,0.9,0.1,1.3c0.1,0.3,0.5,0.5,0.8,0.8c0.2-0.3,0.6-0.6,0.7-0.9
		c0.1-1.3,0-2.6,0-3.9c0-0.9,0-1.7,0-2.7c1.6,0,3.1,0,4.7,0c0,3.5,0,7,0,10.6c-1.4,0-2.9,0-4.3,0c-0.1-0.4-0.1-0.8-0.2-1.3
		c-1.1,1.6-2.6,2-4.3,1.5c-1.2-0.3-2-1-2.1-2.1c-0.1-2.9,0-5.8,0-8.7C16.2,53.1,17.7,53.1,19.4,53.1z"/>
	<path id="XMLID_155_" d="M94.5,60.7C94.7,64,95,63.6,92,64c-0.8,0.1-1.7,0.2-2.6,0.1c-4.5-0.4-5.6-3.4-5.2-7
		c0.4-3.5,3.2-4.7,6.8-4.3c2.8,0.3,4.1,2.1,4.3,5.5c0,0.4,0,0.9,0,1.4c-1.1,0-2.2,0-3.3,0c-1,0-2.1,0-3.1,0
		C89.3,61.5,91.1,61.7,94.5,60.7z M91.2,57.4c-0.2-0.9-0.1-2-1.2-1.9c-1.1,0-1.1,1-1.2,1.9C89.6,57.4,90.4,57.4,91.2,57.4z"/>
	<path id="XMLID_152_" d="M56.5,59.8c-2.2,0-4.2,0-6.3,0c0.1,1.6,2.3,2,5.4,0.9c0,0.1,0.1,0.1,0.1,0.2c0.1,2.9,0.1,3-2.9,3.1
		c-1.4,0.1-2.9,0-4.3-0.4c-1.4-0.3-2.6-1.4-2.8-2.9c-0.3-1.4-0.4-2.9-0.2-4.3c0.4-2.4,2.3-3.6,5.3-3.8c3.5-0.2,5.4,1.6,5.6,5.4
		C56.5,58.6,56.5,59.2,56.5,59.8z M49.9,57.4c0.9,0,1.6,0,2.4,0c-0.1-0.9,0-1.9-1.1-1.9C50.1,55.4,50.1,56.5,49.9,57.4z"/>
	<path id="XMLID_151_" d="M31.7,63.8c-1.6,0-3.1,0-4.6,0c0-3.6,0-7.1,0-10.6c1.6,0,3.1,0,4.6,0C31.7,56.7,31.7,60.2,31.7,63.8z"/>
	<path id="XMLID_148_" d="M95.2,72.4c-1.1,0-2.1,0-3.2,0c0.7,1.5,1.7,0.9,2.7,0.7c0.1,0.1,0.2,0.1,0.2,0.2c-0.2,0.3-0.4,0.8-0.7,0.9
		c-1.8,0.5-3.6,0-3.5-2.5c0.1-1.3,0.8-2,2-2.1c1.4-0.1,2,0.4,2.3,1.8C95.1,71.6,95.1,71.9,95.2,72.4z M92,71.2
		c0,0.1,0.1,0.1,0.1,0.2c0.6,0,1.1,0,1.7,0c-0.2-0.4-0.6-0.8-0.9-0.8C92.6,70.6,92.3,70.9,92,71.2z"/>
	<path id="XMLID_145_" d="M77.8,74.1c-0.9,0.1-1.7,0.2-2.5,0.2c-0.9,0-1.5-0.4-1.6-1.2c-0.1-0.9,0.4-1.5,1.3-1.6
		c0.5-0.1,0.9-0.1,1.4-0.1c-0.3-1.1-0.8-0.8-2.1-0.5c-0.3-0.9-0.3-1,0.4-1.1c2.1-0.5,3.1,0.2,3,2.1C77.8,72.6,77.8,73.3,77.8,74.1z
		 M76.7,72.3c-0.1-0.1-0.2-0.2-0.2-0.3c-0.5,0.3-0.9,0.6-1.4,0.8c0.2,0.2,0.3,0.5,0.5,0.5C76.3,73.5,76.5,72.9,76.7,72.3z"/>
	<path id="XMLID_144_" d="M67.5,69.7c0,1.5,0,2.9,0,4.3c-1,0.1-1.9,0.2-2.9,0.2c-0.8,0-1.2-0.6-1.2-1.3c-0.1-0.9-0.1-1.9,0-2.8
		c0-0.2,0.4-0.5,0.6-0.5c0.2,0,0.5,0.3,0.5,0.5c0.1,0.6,0,1.3,0.1,2c0.1,0.4,0.4,0.7,0.7,1.1c0.3-0.4,0.8-0.7,0.9-1.1
		c0.2-0.8,0-1.6,0-2.4C66.7,69.7,67.1,69.7,67.5,69.7z"/>
	<path id="XMLID_143_" d="M56.3,74.2c-0.4,0-0.8,0-1.3,0c0-0.9,0.1-1.7,0-2.6c0-0.3-0.4-0.7-0.6-1c-0.3,0.3-0.8,0.5-0.9,0.8
		c-0.2,0.9-0.2,1.8-0.2,2.7c-0.4,0-0.7,0-1.2,0c0-1.3,0-2.6,0-3.9c0-0.2,0.3-0.5,0.6-0.5c0.6-0.1,1.2-0.1,1.7-0.1
		c1.1-0.1,1.7,0.3,1.8,1.4C56.4,72,56.3,73,56.3,74.2z"/>
	<path id="XMLID_142_" d="M79.9,69.9c1-0.1,1.8-0.2,2.6-0.3c0.9-0.1,1.4,0.4,1.5,1.2c0.1,1.1,0.1,2.2,0.2,3.3c-0.5,0-0.8,0-1.4,0
		c0-0.8,0.1-1.6,0-2.4c0-0.4-0.4-0.7-0.6-1.1c-0.3,0.3-0.8,0.6-0.9,1c-0.2,0.6,0,1.3-0.1,1.9c0,0.3-0.4,0.4-0.6,0.7
		c-0.2-0.2-0.5-0.4-0.5-0.6C79.9,72.3,79.9,71.1,79.9,69.9z"/>
	<path id="XMLID_141_" d="M61.1,70.5c-0.6,0.1-1.1,0.2-1.6,0.3c0,0.1,0,0.2,0,0.3c1,0.6,2.6,0.7,1.9,2.4c-0.3,0.9-1.6,1.1-3.1,0.6
		c0-0.3,0-0.6,0-0.9c0.6,0,1.2,0,1.9,0c0-0.1,0.1-0.2,0.1-0.4c-0.4-0.2-0.7-0.4-1.1-0.6c-0.7-0.2-1.1-0.7-1-1.4
		c0.1-0.8,0.7-1.2,1.4-1.3C60.9,69.4,61.3,69.6,61.1,70.5z"/>
	<path id="XMLID_140_" d="M89.2,73.2c0.3,0.8,0.1,1.2-0.9,1.2c-1,0-1.9-0.2-2.2-1.3c-0.4-1-0.4-2.1,0.4-2.9c0.8-0.8,1.8-0.8,3-0.3
		c-0.3,0.3-0.5,0.7-0.8,0.7c-1.2,0.2-1.7,0.7-1.5,1.7C87.4,73.1,88,73.4,89.2,73.2z"/>
	<path id="XMLID_137_" d="M96.4,51c0-1.1,0.7-1.8,1.8-1.9c1,0,1.8,0.8,1.8,1.8c0,1-0.8,1.8-1.8,1.9C97.1,52.9,96.4,52.1,96.4,51z
		 M98.8,51.8c0.1,0,0.2,0,0.3,0c0.4-0.7,0.4-1.3-0.1-1.8c-0.3-0.3-0.8-0.3-1.2-0.4c0.4,0.4,1,0.5,1.1,0.8
		C99.1,50.8,98.9,51.4,98.8,51.8z"/>
	<path id="XMLID_136_" d="M48.8,74.2c0-2.1,0-4.1,0-6.1c0.4,0,0.8,0,1.2,0c0,2,0,4,0,6.1C49.6,74.2,49.2,74.2,48.8,74.2z"/>
	<path id="XMLID_135_" d="M70.8,74.2c-0.4,0-0.7,0-1.1,0c0-1.5,0-2.9,0-4.4c0.8,0,1.7-0.1,2.7-0.1c0,0.3,0,0.7,0,1
		C71.2,70.9,71.2,70.9,70.8,74.2z"/>
</g>
</svg>
