<?xml version="1.0" encoding="utf-8"?>
<!-- Generator: Adobe Illustrator 19.0.0, SVG Export Plug-In . SVG Version: 6.00 Build 0)  -->
<svg version="1.1" id="Layer_1" xmlns="http://www.w3.org/2000/svg" xmlns:xlink="http://www.w3.org/1999/xlink" x="0px" y="0px"
	 viewBox="0 0 100 100" style="enable-background:new 0 0 100 100;" xml:space="preserve">
<g id="XMLID_1_">
	<path id="XMLID_266_" d="M49.9,100C22.5,100.1-0.8,77,0,48.5C0.8,22.2,22.9-0.6,51.3,0c26.6,0.6,49.6,23.1,48.7,51.6
		C99.2,78,77.2,100.1,49.9,100z M1.6,50c0,26.6,21.6,48.3,48.2,48.4c26.9,0.2,49.1-21.9,48.7-49.2C98.1,23.1,76.6,1.7,50.1,1.6
		C23.5,1.5,1.6,23.2,1.6,50z"/>
	<path id="XMLID_236_" d="M50,14.3c19.6-0.2,36.4,16.4,35.7,37c-0.6,18.6-16.4,35.1-36.9,34.5C29.9,85.2,14.3,69.4,14.3,50
		C14.3,30.3,30.5,14.2,50,14.3z M50.1,15.9c-18.7,0-34,15.1-34.2,33.8c-0.2,19,15,34.3,33.7,34.5c19.3,0.2,34.8-15.5,34.6-34.6
		C84,31,68.7,15.9,50.1,15.9z"/>
	<path id="XMLID_235_" d="M81.7,73c-0.1-0.5,0.9-2.2,1.5-2.5c-0.2,1.3,1,1.4,1.8,1.9c0.5,0.3,1,0.5,1.5,0.7
		c-0.8-1.1-1.6-2.2-2.3-3.2c-0.1-0.1-0.2-0.2-0.3-0.4c-0.1-0.2-0.1-0.4-0.1-0.5c0.2,0,0.4-0.1,0.5-0.1c1.5,0.2,2.9,0.4,4.4,0.4
		c-0.9-0.6-1.8-1.2-2.8-1.7c-0.2-0.1-0.5,0.1-0.8,0.1c-0.1,0-0.3,0.1-0.4,0.1c0-0.1-0.1-0.3,0-0.4c0.3-0.6,0.6-1.1,0.9-1.6
		c0.1-0.1,0.2-0.1,0.4-0.2c0.1,0.1,0.2,0.3,0.1,0.4c-0.2,0.6,0.1,0.9,0.5,1.2c0.7,0.5,1.5,1.1,2.3,1.6c0.7,0.4,1.3,1.3,2.1-0.1
		c0,0.1,0.1,0.2,0.1,0.2c0,0.2,0,0.4-0.1,0.6c-0.1,0.3-0.3,0.5-0.4,0.7c-0.2,0.3-0.4,0.4-0.8,0.4c-1.5-0.2-2.9-0.3-4.6-0.4
		c0.9,1.4,1.8,2.6,2.6,3.8c0.3,0.4,0,1.7-0.5,1.9c-0.1,0-0.2,0-0.2,0c-0.1-0.1-0.1-0.2-0.1-0.3c0.2-0.6,0-0.9-0.6-1.2
		c-1-0.5-2-1-2.9-1.5c-0.5-0.3-0.9-0.4-1.4,0.1C82,72.9,81.8,72.9,81.7,73z"/>
	<path id="XMLID_234_" d="M94.6,55.9c0.5,0.9,0.1,2-0.7,2.2c-1.4,0.3-2.8,0.6-4.4,0.9c1.3,1,2.4,1.9,3.5,2.8c0.7,0.5,0.7,1.5,0,2.2
		c-0.1-0.1-0.2-0.2-0.2-0.2c0-0.8-0.4-1-1.1-1.1c-1.1-0.2-2.3-0.5-3.4-0.6c-0.2,0-0.5,0.1-0.8,0.3c-0.2,0.1-0.3,0.3-0.5,0.5
		c-0.3-0.5,0.1-2.4,0.5-2.8c0,0,0.1,0,0.1,0c0.1,0.8,0.7,0.9,1.4,1.1c0.8,0.1,1.6,0.4,2.5,0.4c-1.1-0.8-2.2-1.6-3.3-2.5
		c-0.2-0.2-0.4-0.4-0.6-0.7c0.3-0.1,0.5-0.3,0.8-0.3c1.3-0.2,2.6-0.4,3.9-0.7c0-0.1,0-0.1,0-0.2c-1-0.3-2.1-0.6-3.1-0.8
		c-0.2,0-0.4,0.2-0.6,0.3c-0.1,0.1-0.2,0.3-0.5,0.5c-0.1-0.3-0.2-0.4-0.1-0.6c0.1-0.6,0.2-1.2,0.4-1.8c0-0.1,0.2-0.2,0.3-0.3
		c0.1,0.1,0.3,0.2,0.3,0.3c0,0.6,0.4,0.9,1,1c0.9,0.3,1.7,0.5,2.6,0.8C93.4,56.8,94.2,57.2,94.6,55.9z"/>
	<path id="XMLID_233_" d="M51.2,9.6c0.5-1.1,1-2.1,1.4-3.1c0.2-0.5,0.1-0.9-0.4-1.1c-0.1,0-0.2-0.2-0.3-0.3C52,5,52.2,4.9,52.3,4.9
		c0.6,0,1.2,0.1,1.7,0.1c0.1,0,0.2,0.2,0.3,0.2c-0.1,0.1-0.2,0.3-0.2,0.3c-0.5,0.1-0.5,0.4-0.4,0.7c0.3,1.1,0.7,2.3,1,3.4
		c0.1,0,0.1,0,0.2,0c0.5-1.1,0.9-2.3,1.3-3.4c0-0.1-0.2-0.4-0.3-0.5c-0.1-0.1-0.2-0.2-0.3-0.3c0.1-0.1,0.3-0.2,0.4-0.2
		c0.5,0,1.1,0,1.6,0.1c0.1,0,0.3,0.1,0.4,0.2c-0.1,0.1-0.2,0.3-0.3,0.3c-0.6,0.1-0.8,0.6-1.1,1.1c-0.6,1.4-1.2,2.8-1.8,4.2
		c-0.1,0.2-0.3,0.4-0.5,0.6c-0.1-0.2-0.4-0.4-0.4-0.7c-0.4-1.2-0.7-2.4-1.1-3.8c-0.5,1.2-1,2.3-1.5,3.3c-0.2,0.3-0.4,0.6-0.7,1
		c-0.2-0.3-0.4-0.7-0.5-1c-0.3-1.1-0.6-2.2-0.9-3.3c-0.3-0.8-0.3-1.8-1.4-2.2c0.4-0.4,2.2-0.3,2.8,0.1c0,0,0,0.1,0,0.1
		C50,5.4,50.2,6,50.4,6.6C50.7,7.5,50.9,8.5,51.2,9.6z"/>
	<path id="XMLID_230_" d="M82.5,18.8c0.3,0.2,0.5,0.3,0.7,0.4c0.6,0.7,1.2,1.3,1.8,2c1.6,2,1,4.6-1.2,5.4c-1.4,0.5-2.6,0.1-3.6-0.9
		c-0.8-0.8-1.5-1.8-2.2-2.7c-0.1-0.1,0-0.3-0.1-0.4c0.1,0,0.2-0.1,0.3,0c0.8,0.7,1.4,0.2,2-0.3c0.7-0.6,1.5-1.2,2.2-1.8
		c0.4-0.3,0.7-0.6,0.3-1.2C82.5,19.3,82.6,19.1,82.5,18.8z M85,23.2c-0.1-0.8-0.3-1.5-0.9-2c-0.1-0.1-0.5-0.2-0.7-0.1
		c-1,0.8-2,1.6-3,2.4c-0.6,0.5-0.6,1.3,0.1,1.8c0.8,0.6,1.7,0.9,2.7,0.4C84.2,25.1,84.9,24.4,85,23.2z"/>
	<path id="XMLID_229_" d="M40.2,8.8c0.6-0.8,1.1-1.6,1.7-2.5c-0.3-0.1-0.5-0.2-0.7-0.3c0.4-0.5,2.3-1,2.6-0.7
		c-0.9,1-1.9,2.1-2.9,3.2c1.5,0.9,2.6,2.2,4.2,2.5c0.1,0,0.3,0.2,0.4,0.3c-0.1,0.1-0.2,0.3-0.4,0.3c-0.7,0.1-1.4,0.3-2,0.4
		c-0.1,0-0.3-0.1-0.4-0.1c0.1-0.2,0.2-0.4,0.3-0.6c-0.9-0.6-1.7-1.2-2.8-2c0.2,0.8,0.3,1.5,0.5,2.1c0.1,0.2,0.4,0.3,0.7,0.4
		c0.1,0.1,0.3,0.2,0.4,0.3c-0.1,0.1-0.2,0.2-0.3,0.3c-0.7,0.2-1.4,0.3-2.2,0.5c-0.1,0-0.3-0.1-0.4-0.1c0.1-0.1,0.1-0.4,0.2-0.4
		c0.5-0.2,0.5-0.6,0.4-1C39.2,10,39,8.7,38.7,7.4c-0.1-0.2-0.4-0.4-0.6-0.5c-0.1-0.1-0.3-0.2-0.4-0.3c0.1-0.1,0.2-0.3,0.4-0.3
		c0.6-0.1,1.3-0.3,1.9-0.4c0.1,0,0.3,0,0.3,0.1c0,0.1,0,0.3-0.1,0.3c-0.7,0.3-0.4,0.8-0.4,1.2C39.9,8,40,8.4,40.1,8.7
		C40.1,8.8,40.2,8.8,40.2,8.8z"/>
	<path id="XMLID_228_" d="M75.5,87.3c-0.5,0.8-1.6,1.1-2.2,0.9c-1.6-0.6-3.3-1.2-5-1.6c0.6,0.9,1.1,1.9,1.7,2.8
		c0.1,0.1,0.4,0.2,0.6,0.2c0.2,0,0.5,0,0.8,0c-0.1,0.2-0.1,0.3-0.1,0.4c-0.6,0.4-1.1,0.7-1.7,1c-0.1,0.1-0.3,0-0.4,0
		c0-0.1,0-0.3,0.1-0.4c0.5-0.4,0.3-0.8,0-1.3c-0.7-1.3-1.4-2.5-2.1-3.8c-0.1-0.2-0.1-0.5-0.2-0.8c0.3,0,0.6,0,0.8,0.1
		c1.7,0.6,3.4,1.3,5.2,2c0,0,0.1-0.1,0.1-0.1c-0.6-1-1.2-2-1.8-2.9c-0.1-0.2-0.5-0.1-0.8-0.2c-0.2,0-0.3-0.1-0.5-0.2
		c0.1-0.1,0.1-0.3,0.2-0.4c0.6-0.4,1.1-0.7,1.7-1c0.1-0.1,0.3,0,0.4,0c0,0.1,0,0.3-0.1,0.4c-0.4,0.4-0.3,0.8-0.1,1.3
		c0.5,1,1.1,2,1.6,3c0.2,0.5,0.6,0.6,1.1,0.5C74.9,87.3,75.2,87.3,75.5,87.3z"/>
	<path id="XMLID_227_" d="M21.1,23.2c-0.7,0-1.3,0-2,0c-0.4,0-0.8,0.1-1.4,0.1c0.6,0.5,1.1,1,1.6,1.3c0.2,0.1,0.5,0,0.8-0.1
		c0.2,0,0.3,0,0.5,0c0,0.1,0,0.3-0.1,0.4c-0.5,0.6-0.9,1.1-1.4,1.7c-0.1,0.1-0.3,0.1-0.5,0.1c0-0.2-0.1-0.4,0-0.5
		c0.3-0.4,0.1-0.7-0.2-1c-1-0.9-1.9-1.7-2.9-2.6c-0.3-0.3-0.5-0.3-0.9-0.1c-0.1,0.1-0.4,0-0.5,0c0-0.2,0-0.4,0.1-0.5
		c0.5-0.6,1-1.1,1.6-1.7c0.1,0.2,0.2,0.3,0.2,0.4c-0.4,0.7,0.2,1,0.6,1.4c0.2,0.2,0.5,0.4,0.8,0.7c0-1.1,0-2.1,0-3.1
		C17,20,16.8,20,16.5,20c0-0.1-0.1-0.1-0.1-0.2c0.6-0.7,1-1.5,1.8-2.1c0.1,0,0.1,0.1,0.2,0.1c-0.1,0.7-0.3,1.4-0.4,2.1
		c-0.1,0.7,0,1.4,0,2.2c1.7-0.2,3.3,0.2,4.8-0.6c0.1-0.1,0.3,0,0.4,0.1c0,0,0,0.3-0.1,0.4c-0.5,0.6-1,1.1-1.6,1.7
		c-0.1,0.1-0.2,0.1-0.4,0.1C21.2,23.6,21.1,23.4,21.1,23.2z"/>
	<path id="XMLID_224_" d="M36.3,13.4c-0.2,0.7-1,1-1.8,0.7c-0.8-0.3-1.5-0.8-2.2-1.1c-0.3-0.1-0.7-0.2-1-0.3c0,0.1-0.1,0.1-0.1,0.2
		c0.3,0.5,0.5,1,0.8,1.5c0.1,0.2,0.5,0.2,0.7,0.3c0.1,0,0.3,0.1,0.4,0.1c-0.1,0.1-0.1,0.3-0.2,0.4c-0.7,0.4-1.4,0.7-2.2,1.1
		c0-0.2-0.1-0.4,0-0.5c0.6-0.4,0.3-0.9,0.1-1.4c-0.4-0.9-0.9-1.8-1.3-2.7c-0.3-0.6-0.5-1.3-1.7-0.9c0.2-0.4,0.2-0.5,0.3-0.6
		c0.9-0.5,1.7-0.9,2.6-1.3c0.7-0.3,1.4-0.2,1.9,0.4c0.5,0.6,0.6,1.3,0.2,2c-0.1,0.1-0.1,0.2-0.1,0.3C33.6,12.8,34.9,13.3,36.3,13.4z
		 M32.1,11.2c0-0.9-0.8-1.6-1.6-1.3c-0.5,0.2-0.8,0.4-0.4,1c0.2,0.4,0.4,0.8,0.6,1.2c0.1,0.1,0.3,0.3,0.4,0.3
		C31.5,12.3,32.1,11.7,32.1,11.2z"/>
	<path id="XMLID_221_" d="M91.9,50.9c-2.1,0-3.6-1.5-3.5-3.5c0-1.9,1.6-3.4,3.6-3.3c1.8,0,3.3,1.6,3.4,3.5
		C95.3,49.5,93.8,51,91.9,50.9z M92.4,45.3c-1.3,0-2.2,0.3-2.9,1.2c-0.7,0.9-0.5,2.2,0.4,2.7c1.1,0.7,3.1,0.5,4-0.3
		c0.6-0.5,0.9-1.2,0.7-2c-0.2-0.8-0.7-1.2-1.4-1.4C92.9,45.4,92.5,45.4,92.4,45.3z"/>
	<path id="XMLID_218_" d="M78,16.1c0,1.9-1.6,3.4-3.5,3.4c-1.9,0-3.4-1.6-3.4-3.5c0-1.9,1.6-3.4,3.4-3.4C76.6,12.7,78,14.1,78,16.1z
		 M77,15.8c0.1-1.9-1.3-2.9-2.7-2.3c-1.1,0.5-2,2-2,3.1c0,1.6,1.4,2.6,2.7,1.9C76.1,18,76.8,16.9,77,15.8z"/>
	<path id="XMLID_215_" d="M68.1,10.7c0,1.9-1.5,3.5-3.4,3.5c-1.9,0-3.5-1.5-3.5-3.4c0-1.9,1.5-3.5,3.5-3.5
		C66.5,7.2,68.1,8.8,68.1,10.7z M66.8,10.3c0-0.1,0-0.3,0-0.4C66.7,9,66.3,8.3,65.4,8c-0.9-0.3-1.6,0-2.2,0.7
		c-0.8,1-1.1,2.1-0.7,3.3c0.2,0.8,0.8,1.3,1.6,1.5c0.8,0.2,1.4-0.2,1.8-0.8C66.5,12,66.9,11.2,66.8,10.3z"/>
	<path id="XMLID_212_" d="M24.8,80.7c0,1.8-1.5,3.4-3.4,3.4c-1.8,0-3.6-1.6-3.6-3.4c0-1.9,1.6-3.5,3.5-3.5
		C23.3,77.2,24.8,78.8,24.8,80.7z M23.8,80c0-1.3-1.1-2.2-2.2-2c-1.4,0.3-2.7,1.9-2.7,3.3c0,1.3,1.1,2.2,2.3,2
		C22.6,83,23.8,81.4,23.8,80z"/>
	<path id="XMLID_211_" d="M7.1,44.1C7,44.2,7,44.3,6.9,44.3c-1.1,0.7-1.6,1.5-1.5,2.4c0.2,1.1,1.1,1.9,2.3,2.1
		c1.6,0.3,3-0.7,3.3-2.2c0.2-1-0.1-1.3-1.1-1.4c-0.3,0-0.5,0-0.8,0c-0.2,0.3-0.3,0.6-0.5,1c-0.1-0.2-0.3-0.4-0.3-0.5
		c0-0.7,0.1-1.3,0.2-2c0-0.1,0.1-0.2,0.1-0.3c0.1,0,0.3,0,0.3,0.1c0.3,0.9,1.2,0.6,1.8,0.6c0.5,0,0.7,0.1,0.8,0.5
		c0.3,1.1,0.3,2.3-0.2,3.4c-0.7,1.5-2.1,2.3-3.7,2c-1.5-0.3-2.7-1.6-2.7-3.2c0-0.9,0.2-1.8,0.5-2.6C5.4,43.7,6.6,43.6,7.1,44.1z"/>
	<path id="XMLID_210_" d="M84,79.7c-0.1,0.6-1.6,2-2.1,2c0,0-0.1-0.1,0-0.1c0.5-0.7,0.1-1.2-0.4-1.7c-0.6-0.6-1.2-1.2-1.9-1.8
		c-0.7-0.5-1.6-0.4-2.2,0.2c-0.6,0.6-0.7,1.3-0.1,2.1c0.7,0.8,1.4,1.6,2.1,2.4c0.3,0.3,0.7,0.3,1,0.1c0.1-0.1,0.2,0,0.4,0
		c0,0.1,0,0.3-0.1,0.4c-0.5,0.5-1.1,1.1-1.6,1.6c-0.1,0-0.1,0-0.2-0.1c0-0.2-0.1-0.4,0-0.5c0.3-0.4,0.1-0.7-0.2-1.1
		c-0.7-0.7-1.3-1.5-1.9-2.2c-1.3-1.6-0.5-3.7,1.5-4.2c0.7-0.2,1.4,0,1.9,0.4c0.8,0.7,1.5,1.4,2.2,2.1c0.4,0.4,0.7,0.7,1.3,0.4
		C83.8,79.6,83.9,79.7,84,79.7z"/>
	<path id="XMLID_209_" d="M5.8,59.7c-0.1-0.3-0.1-0.7-0.2-1c-0.2-1-0.3-2-0.5-3c0-0.2,0.1-0.5,0.2-0.5C5.7,55,6.1,55,6.4,54.9
		c0,0.2,0,0.4-0.1,0.5c-0.4,0.5-0.6,1.2-0.3,1.8c0.1,0.1,0.3,0.2,0.4,0.2c0.6-0.1,1.2-0.1,1.8-0.2c0-0.8-0.1-1.5-1.1-1.6
		c0-0.1,0.1-0.1,0.1-0.2c0.2-0.1,0.3-0.2,0.5-0.2c0.3-0.1,0.7-0.1,1-0.2c0.2,0,0.4,0.1,0.5,0.1c-0.1,0.1-0.2,0.3-0.2,0.4
		c-0.1,0.2-0.2,0.4-0.2,0.6c0,0.9,0,0.9,0.9,0.8c0,0,0.1,0,0.1,0c0.4-0.2,1.1,0.1,1.3-0.6c0.2-0.8-0.2-1.7-0.9-2
		c-0.2-0.1-0.4-0.2-0.6-0.3c0.7-0.5,1.7-0.3,1.9,0.4c0.3,1.4,0.5,2.8,0.7,4.2c0,0.1,0,0.2-0.1,0.5c-0.2-0.2-0.4-0.3-0.5-0.5
		c-0.2-0.6-0.6-0.6-1.1-0.5c-1.2,0.2-2.5,0.4-3.7,0.6c-0.2,0-0.4,0.3-0.5,0.5c-0.1,0.2-0.2,0.4-0.3,0.5C5.9,59.7,5.9,59.7,5.8,59.7z
		"/>
	<path id="XMLID_208_" d="M7.4,36.8c0.7,0.2,1.4,0.5,2.1,0.7c0.2-0.6,0.6-1.1,0-1.7c-0.1,0,0-0.4,0.1-0.4c0.2-0.1,1.6,0.5,1.8,0.9
		c-0.9,0-1.1,0.7-1.2,1.4c0.6,0.2,1.1,0.4,1.7,0.5c0.2,0,0.5-0.1,0.6-0.2c0.6-0.7,0.6-1.6,0-2.3c-0.1-0.1-0.2-0.3-0.2-0.4
		c0.6-0.3,1.6,0.4,1.5,1c-0.4,1.4-0.9,2.9-1.4,4.3c0,0.1-0.1,0.1-0.3,0.2c-0.1-0.2-0.2-0.3-0.2-0.4c0.1-0.7-0.2-0.9-0.8-1.1
		c-1.2-0.4-2.4-0.8-3.6-1.1c-0.2-0.1-0.5,0.2-0.8,0.3c-0.2,0.1-0.3,0.2-0.5,0.2c0-0.2-0.1-0.4,0-0.5c0.3-1.1,0.7-2.1,1-3.2
		c0.1-0.2,0.3-0.5,0.4-0.5c0.4,0,0.8,0.2,1.1,0.3C8.9,34.7,8.8,35,8.8,35C7.6,35,7.8,36,7.4,36.8z"/>
	<path id="XMLID_207_" d="M91.8,39.1c0.1-0.1,0.1-0.3,0.2-0.3c0.8-0.4,0.9-1.1,0.7-1.9c-0.2-0.8-0.7-1.4-1.5-1.6
		c-1.8-0.5-3.8,0.8-3.9,2.6c0,1.1,0.5,1.7,1.5,2c0.2,0,0.3,0.2,0.4,0.3c-0.2,0.1-0.3,0.3-0.5,0.3c-0.9,0.2-1.2,0.1-1.6-0.7
		c-0.2-0.5-0.5-1-0.6-1.5c-0.5-1.8,0.3-3.4,2-4c1.6-0.6,3.3,0,4.2,1.5c0.5,0.8,0.6,1.8,0.6,2.7C93.6,38.9,92.6,39.4,91.8,39.1z"/>
	<path id="XMLID_206_" d="M27.2,86.8c0,0.2,0.1,0.3,0.1,0.4c-0.1,1.5,1.3,2.5,2.7,2.1c1.6-0.5,2.5-2.7,1.7-4.2
		c-0.6-1.2-1.7-1.5-2.9-0.8c-0.1,0.1-0.2,0.1-0.4,0.2c-0.2-0.6,0.4-1.5,1-1.4c1.5,0.1,3.3,1.4,3.6,2.9c0.6,2.4-1.6,4.7-4,4.2
		c-1.1-0.2-2-0.8-2.7-1.6C26,88.1,26.5,87.1,27.2,86.8z"/>
	<path id="XMLID_205_" d="M55.2,94.2c0.9-0.1,1.8,0.2,2-1c0-0.1,0.2-0.2,0.3-0.2c0.1,0,0.2,0.2,0.2,0.3c0,0.4,0.1,0.9,0,1.3
		c0,0.1-0.2,0.3-0.3,0.3c-0.7,0-1.5,0-2.2,0c-1,0.1-2,0.2-2.9,0.3c0,0-0.1,0-0.1,0c-0.8,0.3-0.8,0.3-0.8-0.6c0-0.1,0-0.1,0-0.2
		c0.1-0.3,0.1-0.5,0.2-0.8c0.2,0.2,0.4,0.4,0.5,0.6c0.3,0.5,0.7,0.3,1.1,0.3c0.3,0,0.5-0.1,0.9-0.1c-0.1-1-0.2-2-0.2-3
		c0-0.1,0-0.2-0.1-0.3c-0.1-0.9,0-1.9-1.4-2.1c0-0.1,0.1-0.1,0.1-0.2c0.2-0.1,0.3-0.2,0.5-0.3c0.8-0.1,1.6-0.1,2.3-0.2
		c0.1,0,0.3,0.1,0.4,0.2c-0.1,0.1-0.2,0.3-0.3,0.3c-0.8,0.2-0.8,0.7-0.7,1.3C55,91.5,55.1,92.9,55.2,94.2z"/>
	<path id="XMLID_204_" d="M46.1,88.7c0,0.1,0,0.1,0,0.1c-0.3,0.3-0.8,0.4-1,0.8c-0.3,0.8-0.4,1.6,0,2.4c0.2,0.4,0.4,0.9,0.5,1.3
		c0.2,0.6,0.5,1.1,1.1,1.4c0.1,0.1,0.2,0.2,0.3,0.3c0,0.1-0.1,0.1-0.1,0.2c-0.9-0.1-1.8-0.2-2.7-0.4c0-0.1,0-0.2,0-0.2
		c0.2-0.1,0.4-0.2,0.6-0.4c-0.3-0.8-0.6-1.6-0.9-2.5c-0.6,0.8-1.1,1.4-1.6,2.1c0.2,0.2,0.4,0.4,0.5,0.6c0,0.1-0.1,0.2-0.1,0.2
		c-0.8-0.1-1.5-0.2-2.5-0.3c0.2-0.3,0.3-0.4,0.3-0.4c1.5-0.3,2.2-1.6,2.9-2.7c0.4-0.5,0.4-1.3,0.4-1.9c0-0.2-0.4-0.4-0.5-0.6
		c-0.1-0.1-0.2-0.2-0.2-0.4c0,0,0.2-0.2,0.2-0.2c0.9,0.1,1.7,0.3,2.6,0.4C46,88.6,46,88.7,46.1,88.7z"/>
	<path id="XMLID_203_" d="M12.2,74.3c0.2,0.1,0.3,0.2,0.5,0.2c0.3,0,0.7,0.2,0.9,0c1.1-0.7,2.2-1.5,3.4-2.2c0.3-0.2,0.4-0.5,0.2-0.9
		c-0.4-0.8-0.9-1.3-1.9-1.1c-0.1,0-0.2,0-0.3,0c0,0-0.1-0.1-0.1-0.1c0.3-0.6,0.9-0.6,1.4-0.7c0.2,0,0.5,0.2,0.7,0.4
		c0.7,1.1,1.5,2.1,2.2,3.2c0.1,0.1,0,0.3,0.1,0.5c-0.2,0-0.4,0-0.5-0.1c-0.4-0.5-0.9-0.3-1.3,0c-1,0.7-1.9,1.3-2.9,1.9
		c-0.3,0.2-0.7,0.5-0.4,1c0,0.1,0,0.3-0.1,0.3c-0.1,0-0.3,0-0.3-0.1c-0.4-0.6-0.9-1.3-1.3-2C12.1,74.7,12.2,74.5,12.2,74.3z"/>
	<path id="XMLID_202_" d="M8.9,68.7c-0.1-0.2-0.3-0.3-0.3-0.4c-0.2-0.6-0.5-1.2-0.7-1.8c0-0.1,0-0.3,0-0.5C8,66,8.2,66,8.3,66.1
		c0.2,0.4,0.5,0.4,0.9,0.3c1.2-0.5,2.4-1,3.6-1.4c0.5-0.2,0.6-0.5,0.4-1c-0.3-0.8-0.7-1.3-1.6-1.4c-0.1,0-0.2-0.1-0.4-0.1
		c0.3-0.6,0.8-0.5,1.3-0.5c0.2,0,0.6,0.2,0.7,0.4c0.5,1.2,1,2.5,1.5,3.8c0,0.1,0,0.3-0.1,0.4c-0.2-0.1-0.4-0.1-0.4-0.2
		c-0.3-0.6-0.8-0.5-1.3-0.3c-1,0.4-2,0.8-3.1,1.2c-0.5,0.2-0.9,0.4-0.8,1C9.1,68.4,9,68.5,8.9,68.7z"/>
	<path id="XMLID_201_" d="M64.9,92.5c-0.5,0.5-2.3,1.1-2.8,0.9c0,0,0-0.1,0-0.1c0.8-0.6,0.4-1.4,0.2-2.1c-0.3-0.9-0.6-1.7-0.8-2.6
		c-0.1-0.5-0.3-0.8-0.9-0.8c-0.1,0-0.3-0.1-0.4-0.2c0.1-0.1,0.2-0.3,0.3-0.3c0.7-0.2,1.4-0.5,2-0.7c0.1,0,0.3,0,0.4,0
		c0,0.1,0,0.3-0.1,0.4c-0.5,0.3-0.4,0.7-0.3,1.2c0.4,1.1,0.7,2.3,1,3.4c0.1,0.5,0.4,0.8,0.9,0.7C64.6,92.3,64.7,92.4,64.9,92.5z"/>
	<path id="XMLID_200_" d="M25.5,20.1c0-0.3-0.1-0.5,0-0.5c0.5-0.6,0.1-1-0.2-1.5c-0.6-0.9-1.3-1.7-1.9-2.6c-0.3-0.4-0.6-0.7-1.2-0.4
		c-0.1,0-0.2,0-0.4,0c0.1-0.2,0.1-0.4,0.2-0.4c0.6-0.5,1.1-0.9,1.7-1.3c0.1-0.1,0.3,0,0.4,0c0,0.1,0.1,0.3,0,0.4
		c-0.4,0.4-0.2,0.8,0.1,1.1c0.7,0.9,1.4,1.9,2.1,2.9c0.3,0.4,0.6,0.6,1.1,0.4c0.1-0.1,0.3,0,0.5,0c0,0.1,0.1,0.1,0.1,0.2
		C27.2,18.7,26.4,19.4,25.5,20.1z"/>
	<path id="XMLID_188_" d="M67.7,50.1c0,6,0,12.1,0,18.1c0,1.2-0.2,2.3-0.9,3.3c-0.9,1.3-2.2,2-3.8,2c-8.7,0-17.4,0-26,0
		c-2.4,0-4.4-2-4.6-4.4c0-0.4,0-0.8,0-1.2c0-12,0-24,0-36c0-1.6,0.4-3.1,1.6-4.2c0.8-0.7,1.8-1.1,2.9-1.1c8.8,0,17.6,0,26.4,0
		c2.1,0,4.2,2,4.3,4.2c0,0.7,0,1.4,0,2.1C67.7,38.6,67.7,44.4,67.7,50.1z M66,50.1C66,50.1,66,50.1,66,50.1c0-6.2,0-12.4,0-18.6
		c0-1.8-1.4-3.4-3.4-3.4c-8.5,0.1-17,0-25.4,0c-2,0-3.2,1.3-3.2,3.2c0,12.4,0,24.8,0,37.2c0,1.7,1.4,3.3,3.3,3.3
		c8.5-0.1,16.9-0.1,25.4,0c1.9,0,3.4-1.5,3.4-3.4C66,62.4,66,56.2,66,50.1z"/>
	<path id="XMLID_184_" d="M50.4,52.9c3.3,1.8,5.1,4.9,7,7.9c0.9,1.5,1.7,3,3.2,3.9c0.7,0.5,1.6,0.8,2.4,1.2c-0.7,1.2-1.7,1.7-3,1.9
		c-2.9,0.4-5.2-0.7-6.9-3c-1.1-1.6-2.1-3.2-3.2-4.8c-0.8-1.1-1.8-2.1-2.7-3.1c-0.2-0.2-0.6-0.3-0.7-0.2c-0.2,0.1-0.3,0.5-0.3,0.7
		c-0.1,2.3-0.1,4.7-0.2,7c0,1.5-0.6,2.4-2.1,2.7c-1.2,0.2-2.4,0.2-3.5,0.2c-0.1,0-0.4-0.3-0.4-0.4c0-2.8,0-5.7,0-8.5
		c0-0.2,0-0.4,0-0.7c0-4.7,0-9.3,0.1-14c0-1.7,0-3.3,0.1-5c0-1.2-0.3-2.1-1.2-2.8c-0.3-0.2-0.6-0.5-0.9-0.8
		c-0.7-0.7-0.6-1.3,0.4-1.7c0.3-0.1,0.7-0.1,1-0.2c0.8-0.2,1.6-0.5,2.3-0.8c0.8-0.3,1.5-0.1,2,0.7c0.2,0.4,0.4,0.8,0.7,1.1
		c0.9,1.3,1,2.8,1,4.3c0.2,4.7,0.5,9.3,0.8,14c0,0.2,0.1,0.4,0.2,0.6c0.3-0.2,0.5-0.3,0.7-0.5c2.3-2.3,4.6-4.6,6.8-6.9
		c1.2-1.2,1.7-2.8,2.1-4.4c0-0.1,0-0.1,0-0.2c0.1-0.8,0.5-1.3,1.3-1.4c1.1-0.2,2.2-0.4,3.4-0.7c-0.3,1.9-1,3.5-2.1,4.9
		c-1,1.3-2.3,2.5-3.4,3.8c-1.6,1.7-3.2,3.4-4.8,5C50.5,52.7,50.5,52.8,50.4,52.9z"/>
</g>
</svg>
