<?xml version="1.0" encoding="utf-8"?>
<!-- Generator: Adobe Illustrator 19.0.0, SVG Export Plug-In . SVG Version: 6.00 Build 0)  -->
<svg version="1.1" id="Layer_1" xmlns="http://www.w3.org/2000/svg" xmlns:xlink="http://www.w3.org/1999/xlink" x="0px" y="0px"
	 viewBox="0 0 100 100" style="enable-background:new 0 0 100 100;" xml:space="preserve">
<style type="text/css">
	.st0{display:none;}
	.st1{display:inline;}
</style>
<g id="XMLID_1_" class="st0">
	<path id="XMLID_6_" class="st1" d="M76.6,42.2c-5.9-6-11.8-11.9-17.8-17.9c-1.8,1-3.6,2-5.5,3.1c0.6,0.6,1.1,1.1,1.6,1.6l1.8,1.8
		c0.4,0.4,0.4,1,0,1.4l-0.2,0.2c-0.4,0.4-1,0.4-1.3,0L54.8,32c-0.1,0-0.2-0.1-0.2-0.1c-0.6-0.6-1.2-1.2-1.7-1.8l-1.4-1.4
		c-1.6,1.1-2.8,2-4.2,3l1.9,1.9c0.3,0.3,0.5,0.5,0.8,0.8l1.2,1.2c0.4,0.4,0.4,1,0,1.4L51,37.1c-0.4,0.4-1,0.4-1.3,0l-4.2-4.2
		c-1.4,1.2-2.5,2.1-3.9,3.3l2.3,2.3c0.4,0.3,0.7,0.7,1,1l0.4,0.4c0.4,0.4,0.4,1,0,1.4l0,0c0,0,0,0.1,0,0.1c0,0-0.1,0-0.1,0l-0.1,0.1
		c-0.4,0.4-1,0.4-1.3,0l-3.8-3.9c-1.1,1.1-2,1.9-3.1,2.9l3.5,3.5c0.2,0.2,0.4,0.3,0.5,0.5l0.3,0.3c0.4,0.4,0.4,1,0,1.4l-0.2,0.2
		c-0.4,0.4-1,0.4-1.3,0c-0.4-0.2-0.7-0.6-1-1c-0.1-0.1-0.1-0.1-0.2-0.2l-3.1-3.1c-1.2,1.4-2,2.3-2.9,3.3l1.5,1.5
		c0.6,0.5,1.1,1.1,1.7,1.7l0.9,0.9c0.4,0.4,0.4,1,0,1.4L36.1,51c-0.4,0.4-1,0.4-1.3,0l-3.9-3.9c-1.1,1.4-1.9,2.6-2.9,3.9l1.7,1.7
		c0.7,0.6,1.3,1.2,1.9,1.9c0,0,0,0,0.1,0.1l0.8,0.8c0.4,0.4,0.4,1,0,1.4L32.1,57c-0.4,0.4-1,0.4-1.3,0l-4.1-4.2
		c-1,1.6-1.7,2.9-2.5,4.1c-0.7,1-0.4,1.7,0.4,2.5c7.7,7.7,15.4,15.4,23,23.2c0.9,0.9,1.6,1.1,2.8,0.6C66,76.9,76.4,65.5,82.8,50
		c0.4-1,0.1-1.5-0.5-2.2C80.3,46,78.5,44.1,76.6,42.2z"/>
	<path id="XMLID_9_" class="st1" d="M21.6,56.8c1.2-2.1,2.2-3.7,3.4-5.6l-2.6-2.6c-0.4-0.4-0.4-1,0-1.4l0.2-0.2c0.4-0.4,1-0.4,1.3,0
		l0.5,0.5c0,0,0,0,0,0c0.1,0.1,0.2,0.2,0.2,0.3l1.6,1.6c1.2-1.5,2-2.6,3-3.9l-2.9-2.9c-0.4-0.4-0.4-1,0-1.4l0.2-0.2
		c0.4-0.4,1-0.4,1.3,0l2.8,2.8c1.1-1.3,2-2.2,3-3.3L31.1,38c-0.4-0.4-0.4-1,0-1.4l0.2-0.2c0.4-0.4,1-0.4,1.3,0l2.5,2.6
		c1.1-1,2-1.9,3.1-2.9l-3-3c-0.4-0.4-0.4-1,0-1.4l0.2-0.2c0.4-0.4,1-0.4,1.3,0l0.6,0.6c0,0,0,0,0,0c0.3,0.3,0.6,0.6,0.9,1l1.4,1.5
		c1.4-1.2,2.6-2.2,3.8-3.2c-0.7-0.7-1.4-1.3-1.9-2l-0.6-0.6c-0.4-0.4-0.4-1,0-1.4l0.2-0.2c0.4-0.4,1-0.4,1.3,0l2.9,2.9
		c1.6-1.1,2.8-2,4.2-3l-1.4-1.4c-0.3-0.3-0.6-0.6-0.9-0.9c0,0,0-0.1-0.1-0.1L46.8,24c-0.4-0.4-0.4-1,0-1.4l0.2-0.2
		c0.4-0.4,1-0.4,1.3,0l3.4,3.4c2-1.1,3.6-2.1,5.6-3.3c-1.9-1.8-3.7-3.5-5.5-5.2c-0.7-0.7-1.3-0.9-2.2-0.5c-3.1,1.5-6.3,2.8-9.3,4.5
		C29,27.7,21.2,37.4,16.7,49.7c-0.2,0.5-0.3,1.4,0,1.8C18.2,53.3,19.8,54.9,21.6,56.8z"/>
	<path id="XMLID_10_" class="st1" d="M16.4,81.8c4.6,5.3,12.4,6.8,21.4,5L13.6,62.5C11.5,70.1,12.3,77,16.4,81.8z"/>
	<path id="XMLID_11_" class="st1" d="M83.6,18.2c-4.6-5.3-12.4-6.8-21.4-5l24.2,24.3C88.5,29.9,87.7,23,83.6,18.2z"/>
</g>
<g id="XMLID_2_" class="st0">
	<path id="XMLID_4_" class="st1" d="M32.5,72.7c-3.6-8.9-3.7-17.8,1.5-26.3c0.6-1,0.8-1.9,0.2-2.7c-4.2,0-8.2,0-12.2,0
		c-0.5,0-1.3,0.3-1.5,0.7c-1.2,2.5-2.5,5-3.4,7.6c-4.1,11.4-3.2,22.5,2.5,33.3c0.8,1.5,1.6,2.1,3.4,2.1c2.4,0,3.5,0,5.2,0
		c6.3,0,6.3,0,8.7-5.9c0.4-1,0.3-1.6-0.3-2.5C35.1,77.1,33.4,75,32.5,72.7z"/>
	<path id="XMLID_23_" class="st1" d="M21.5,29.6c4.2-0.1,8.5,0,12.9,0c1.1-2.6,1.5-7.9,0.9-10.5c-1-3.9-3.9-6.5-7.4-6.6
		c-3.8-0.1-6.8,1.9-8.1,5.9c-1.1,3.3-0.7,6.7,0,10C20,29.3,20.4,29.7,21.5,29.6z"/>
	<path id="XMLID_24_" class="st1" d="M21.5,38.8c4.1,0,8,0,12,0l0.2-4.2c-4.2,0-8.4,0-12.6,0L21.5,38.8z"/>
	<path id="XMLID_48_" class="st1" d="M58.7,34.4C43.6,34.9,32.4,45,32.3,61.3c-0.1,14.1,11.2,26,26.5,26.1
		c14.8,0.1,26.6-11.8,26.6-26.6C85.4,46.3,73.3,34,58.7,34.4z M44.1,53c-3.9,6.9-4.4,14.1-1.7,21.8c-4.9-4.4-7.4-14.9-3.9-22.1
		c5.1-10.6,14.2-14.6,22.8-13C53.8,41.8,48,46.1,44.1,53z M64.1,50.6c-0.9-2.2-0.2-4.6,1.6-5.3c1.7-0.7,3.9,0.5,4.8,2.7
		c0.9,2.2,0.2,4.6-1.6,5.3C67.1,54,65,52.8,64.1,50.6z M73.2,64c-1.7,0.7-3.9-0.5-4.8-2.7c-0.9-2.2-0.2-4.6,1.6-5.3
		c1.7-0.7,3.9,0.5,4.8,2.7C75.6,60.9,74.9,63.3,73.2,64z M78.2,56.9c-1.7,0.7-3.9-0.5-4.8-2.7c-0.9-2.2-0.2-4.6,1.6-5.3
		s3.9,0.5,4.8,2.7C80.6,53.8,79.9,56.2,78.2,56.9z"/>
</g>
<g id="XMLID_7_">
	<path id="XMLID_54_" d="M55.7,35.7c0,0-9.2-8-13.3-11.8c-4-3.7-9.5,2.8-9.5,2.8l9.5,15.5L55.7,35.7z"/>
	<path id="XMLID_55_" d="M59.7,48.1c0,0-6.1,3.9-8.6,4.9c-2.5,1-1.3,2.8-1,3.4c0.3,0.6,9.2,16.1,10.4,17.9c1.2,1.8,5.8-1.6,7.5-3.3
		c1.6-1.6-3.1-17-3.9-21.6C63.3,44.8,59.7,48.1,59.7,48.1z"/>
	<path id="XMLID_56_" d="M24.7,36.6l6.6-3.7c0.4-0.2,0.5-0.7,0.3-1.1c-0.2-0.4-0.7-0.5-1.1-0.3l-6.6,3.7c-0.4,0.2-0.5,0.7-0.3,1.1
		C23.8,36.7,24.3,36.9,24.7,36.6z"/>
	<path id="XMLID_57_" d="M21.4,43.7l12-6.8c0.4-0.2,0.5-0.7,0.3-1.1v0c-0.2-0.4-0.7-0.5-1.1-0.3l-12,6.8c-0.4,0.2-0.5,0.7-0.3,1.1
		C20.5,43.8,21,44,21.4,43.7z"/>
	<path id="XMLID_58_" d="M35,39.9l-4.3,2.4c-0.4,0.2-0.5,0.7-0.3,1.1c0.2,0.4,0.7,0.5,1.1,0.3l4.3-2.4c0.4-0.2,0.5-0.7,0.3-1.1v0
		C35.9,39.8,35.4,39.6,35,39.9z"/>
	<path id="XMLID_59_" d="M55.3,71.9l-6.6,3.8c-0.4,0.2-0.5,0.7-0.3,1.1c0.2,0.4,0.7,0.5,1.1,0.3l6.6-3.8c0.4-0.2,0.5-0.7,0.3-1.1
		C56.2,71.8,55.7,71.7,55.3,71.9z"/>
	<path id="XMLID_60_" d="M54,68.3c-0.2-0.4-0.7-0.5-1.1-0.3l-11.9,6.9c-0.4,0.2-0.5,0.7-0.3,1.1c0.2,0.4,0.7,0.5,1.1,0.3l11.9-6.9
		C54.1,69.2,54.2,68.7,54,68.3z"/>
	<path id="XMLID_61_" d="M46.9,67.7l4.3-2.5c0.4-0.2,0.5-0.7,0.3-1.1c-0.2-0.4-0.7-0.5-1.1-0.3l-4.3,2.5c-0.4,0.2-0.5,0.7-0.3,1.1
		C46,67.7,46.5,67.9,46.9,67.7z"/>
	<path id="XMLID_71_" d="M17.4,50.6c-3.3-1.9-4.9,1.3-4.9,1.8c0,0.4,4.2,5.4,4.2,5.4l6.7-3.7C23.4,54,20.7,52.5,17.4,50.6z"/>
	<path id="XMLID_74_" d="M87,38.7c-4-1.3-14.8-4.7-16.4-5.2c-1.9-0.6-3.9-2.1-9.4,1.7c-5.5,3.7-44.1,25.3-44.1,25.3s4.5,6.9,5.7,8.2
		c1.2,1.3,1.6,1,3.4,0.4C28,68.5,50,60.6,50,60.6s-2.5-3.1-2.5-6c0-2.8,3.6-4.2,6.1-6.1c2.5-1.9,9.8-6.9,11.8-1.9
		c1.9,4.9,1.9,4.9,1.9,4.9l19.8-11.6C87.7,39.6,87.6,38.8,87,38.7z M37.3,55.1c-0.8,0-1.5-0.7-1.5-1.5c0-0.8,0.7-1.5,1.5-1.5
		c0.8,0,1.5,0.7,1.5,1.5C38.8,54.5,38.1,55.1,37.3,55.1z M41.6,52.4c-0.8,0-1.5-0.7-1.5-1.5c0-0.8,0.7-1.5,1.5-1.5
		c0.8,0,1.5,0.7,1.5,1.5C43.1,51.7,42.5,52.4,41.6,52.4z M46.1,49.8c-0.8,0-1.5-0.7-1.5-1.5c0-0.8,0.7-1.5,1.5-1.5
		c0.8,0,1.5,0.7,1.5,1.5C47.6,49.1,46.9,49.8,46.1,49.8z M50.6,47.4c-0.8,0-1.5-0.7-1.5-1.5c0-0.8,0.7-1.5,1.5-1.5
		c0.8,0,1.5,0.7,1.5,1.5C52.1,46.7,51.4,47.4,50.6,47.4z M55.3,44.7c-0.8,0-1.5-0.7-1.5-1.5c0-0.8,0.7-1.5,1.5-1.5s1.5,0.7,1.5,1.5
		C56.8,44.1,56.2,44.7,55.3,44.7z M59.4,42.2c-0.8,0-1.5-0.7-1.5-1.5c0-0.8,0.7-1.5,1.5-1.5c0.8,0,1.5,0.7,1.5,1.5
		C60.9,41.5,60.2,42.2,59.4,42.2z M66.1,39l-1.8-2.3c0,0,0.5-0.5,1.4-1c2.9-1.8,4.6,0.8,4.6,0.8L66.1,39z"/>
</g>
<g id="XMLID_8_" class="st0">
	<path id="XMLID_20_" class="st1" d="M36.9,46.2c0,0.3-0.1,0.5-0.1,0.6c0.4,10.4,0.7,20.8,1.4,31.2c0.2,3.2,1.5,6.3,2.2,9.5
		c0.1,0,0.2,0,0.3,0c2-4.5,2.3-9.3,2.6-14c0.5-8.1,0.6-16.1,0.9-24.2c0-1,0-2.1,0-3.1C41.7,46.2,39.3,46.2,36.9,46.2z"/>
	<path id="XMLID_53_" class="st1" d="M69.7,35.9c-4.7-3.7-10-5.5-16-4.7c-5.5,0.7-9.4,5.8-8.5,11.2c0.2,1.4-0.1,3.2,0.6,4.2
		c0.7,1,2.5,1.3,3.7,2c3.3,1.9,3.2,5.6-0.1,7.4c-1.1,0.6-2.5,1-3.9,1.5c0,1.4-0.1,2.9,0,4.3c0,0.5,0.3,1.2,0.7,1.5
		c2.8,2.5,2.6,6.1-0.5,8.4c-0.4,0.3-0.7,0.9-0.8,1.4c-0.2,0.7-0.1,1.6-0.3,2.3c-0.2,1,0.1,1.5,1.2,1.8c8,2.3,15.8,2,23.3-1.5
		c6.4-3,10.9-7.8,11.6-15C81.4,50.6,77.7,42.2,69.7,35.9z M53.2,41.1c0-2.8,2.2-5.2,5-5.2c2.7,0,5.1,2.4,5.1,5.1
		c0,2.8-2.2,4.9-5,4.9C55.4,46,53.2,43.9,53.2,41.1z M60.7,73.7c-2.7,0-5.2-2.4-5.1-5.1c0-2.7,2.3-4.9,5-5c2.8,0,5,2.1,5.1,4.9
		C65.8,71.3,63.5,73.7,60.7,73.7z M68.2,58.7c-2.7,0-5-2.3-5-5c0-2.9,2.1-5.1,5-5.1c2.8,0,5,2.2,5,4.9C73.3,56.3,71,58.7,68.2,58.7z
		"/>
	<path id="XMLID_81_" class="st1" d="M24.9,43.1c-3,0.5-4.9,2.4-5.4,5.4c-0.2,1.6-0.3,3.3,0.1,4.8c2.2,9.3,9,14.9,16.6,19.9
		c-0.3-9.9-0.6-19.5-0.8-29.3C32,43,28.5,42.5,24.9,43.1z M29.2,58.7c-2.7,0-5-2.4-5-5.1c0-2.9,2.3-5,5.1-5c2.8,0,5,2.3,5,5
		C34.4,56.3,31.9,58.7,29.2,58.7z"/>
	<path id="XMLID_82_" class="st1" d="M41.2,28.5c1.5-0.1,2-1.1,2.4-2.2c1.7-5,0.7-9.6-2.6-13.8c-1,1.9-2,3.6-2.9,5.3
		c-1.5,2.9-1.7,5.8-0.3,8.8C38.4,28.1,39.5,28.6,41.2,28.5z"/>
	<path id="XMLID_83_" class="st1" d="M42,30.9c-0.1-0.5-0.8-1-1.2-1.1c-0.5-0.1-1.5,0.4-1.5,0.7c-0.8,4.6-1.6,9.3-2.3,14
		c0.6,0,1,0.1,1.4,0.1c1.9,0,3.8,0,5.9,0c-0.3-1.8-0.6-3.4-0.8-4.9C43,36.9,42.6,33.9,42,30.9z"/>
</g>
<g id="XMLID_5_" class="st0">
	<path id="XMLID_97_" class="st1" d="M35.1,36.4c3.8,0,7.7,0.1,11.6-0.1c0.5,0,0.9-1.4,1.5-2.5c-1.3-0.1-1.9-0.1-2.5-0.2
		c-3.1-0.3-5.4-2.6-5.5-5.7c-0.1-2.6-0.1-5.2,0-7.8c0.1-3.7,2.6-6.2,6.3-6.3c7.3-0.1,14.7-0.1,22,0c3.7,0,6.2,2.5,6.4,6.2
		c0.1,2.5,0.1,5,0,7.5c-0.2,3.7-2.6,6-6.2,6.1c-0.3,0-0.7,0.1-1.2,0.1c0,0.8,0,1.6,0,2.7c3.3,0,6.6,0,9.8,0c2.6,0,4.9,0.8,6.8,2.5
		c2.2,2,3.3,4.6,3.3,7.6c0,9.9,0.1,19.8,0,29.7c0,5.7-4.4,10-10.1,10c-18.3,0-36.5,0.1-54.8,0c-5.8,0-10.1-4.4-10.1-10.2
		c0-9.8,0-19.7,0-29.5c0-5.3,3.5-9.3,8.7-10c0.9-0.1,1.3-0.5,1.5-1.4c0.6-2.8,1.7-3.7,4.5-3.8c0.6,0,1.2,0,1.8,0
		C33.3,31.4,34.1,32,35.1,36.4z M57.5,78.9c9.8,0,17.6-7.9,17.6-17.8c0-9.5-8.1-17.4-17.6-17.5c-9.6,0-17.7,8.1-17.6,17.7
		C39.9,71,47.9,78.9,57.5,78.9z M70.1,18.8c-8.5,0-16.8,0-25.1,0c0,3.4,0,6.6,0,9.8c8.4,0,16.7,0,25.1,0
		C70.1,25.3,70.1,22.1,70.1,18.8z M24.5,50c0,2.2,1.9,4.2,4.1,4.3C31,54.3,33,52.3,33,50c0-2.3-1.9-4.2-4.1-4.2
		C26.5,45.7,24.5,47.7,24.5,50z"/>
	<path id="XMLID_89_" class="st1" d="M57.6,48.9c7,0.1,12.4,5.6,12.3,12.5c-0.1,6.9-5.7,12.4-12.5,12.3c-7-0.1-12.3-5.7-12.2-12.8
		C45.3,54.2,50.8,48.9,57.6,48.9z M61.2,53.2c-2.2,0-4.2,2-4.2,4.2c0,2.3,2,4.3,4.3,4.3c2.2,0,4.2-2,4.2-4.2
		C65.5,55.3,63.5,53.2,61.2,53.2z"/>
</g>
<g id="XMLID_22_" class="st0">
	<path id="XMLID_66_" class="st1" d="M85.8,70.6c0.6,0,1.1-0.1,1.6-0.1c0-16.5,0-32.8,0-49.1c-25.1,0-50,0-74.9,0
		c0,16.4,0,32.7,0,49.2c0.7,0,2.4,0,2.9,0c1.6,0,1.3-0.3,2.3-1.8c2.9-4.4,9.5-4.1,12.1,0.6c0.6,1.1,1.2,1.2,2.3,1.2
		C50,70.6,67.9,70.6,85.8,70.6z M29.5,45.9c0-11.2,9.2-20.3,20.5-20.3c11.4,0,20.5,9,20.5,20.3c0,11.2-9.1,20.3-20.5,20.3
		C38.7,66.2,29.5,57.1,29.5,45.9z"/>
	<path id="XMLID_87_" class="st1" d="M30.8,72c0,0.9,0,1.8,0,2.6c18.9,0,37.8,0,56.7,0c0-0.9,0-1.7,0-2.6C68.5,72,49.7,72,30.8,72z"
		/>
	<path id="XMLID_93_" class="st1" d="M23.6,67c-3.2,0-5.9,2.6-5.9,5.8c0,3.1,2.6,5.8,5.8,5.9c3.3,0,6-2.6,6-5.9
		C29.4,69.6,26.8,67,23.6,67z M23.4,75.5c-1.5-0.1-2.7-1.3-2.6-2.7c0-1.5,1.4-2.7,2.9-2.6c1.5,0.1,2.6,1.3,2.6,2.8
		C26.3,74.4,25,75.5,23.4,75.5z"/>
	<path id="XMLID_94_" class="st1" d="M12.5,72c0,0.9,0,1.7,0,2.6c1.4,0,2.7,0,4,0c-0.1-0.9-0.2-1.6-0.3-2.6C15,72,13.8,72,12.5,72z"
		/>
	<path id="XMLID_95_" class="st1" d="M42,57.4c0,1.9,0.5,2.1,2.1,1.2c6-3.6,12-7.2,17.9-10.9c1.4-0.9,1.4-1.3,0-2.2
		c-6-3.7-12-7.3-18.1-10.9c-1.4-0.9-1.9-0.6-1.9,1.1c0,3.6,0,7.2,0,10.8C42,50.1,42,53.7,42,57.4z"/>
</g>
<g id="XMLID_12_" class="st0">
	<path id="XMLID_18_" class="st1" d="M86.1,53.2c-1-0.1-1.9-0.1-2.9-0.2c-2.3-0.1-3.8-1.2-4.6-3.3c-0.6-1.6-1.2-3.2-1.9-4.7
		c-1.1-2.2-1.2-4.4-0.6-6.8c1.3-5.6,1.7-11.2,1.2-16.9c-0.2-1.8-0.6-3.5-1-5.3c-0.2-0.9-0.8-1.1-1.6-0.7c-1.6,1-3.3,1.9-4.8,2.9
		c-3.4,2.4-6.3,5.3-9.1,8.4c-1.2,1.4-2.6,1.9-4.4,1.6c-4-0.7-7.9-0.8-11.9-0.1c-2.4,0.5-4.1-0.2-5.8-2c-2-2.3-4.3-4.5-6.7-6.5
		c-2-1.7-4.4-3-6.6-4.4c-0.8-0.5-1.4-0.2-1.6,0.7c-0.3,1.2-0.7,2.3-0.8,3.5c-0.8,6.3-0.4,12.6,1,18.8c0.5,2,0.5,3.9-0.3,5.9
		c-0.8,1.9-1.5,3.8-2.3,5.6c-0.8,2-2.3,3.1-4.5,3.2c-1,0.1-1.9,0.1-2.9,0.2c-1.2,0.1-1.6,0.5-1.5,1.7c0.1,1,0.3,2,0.6,2.9
		c5,15.8,20.2,26.9,36.9,27.1c2.6-0.3,5.2-0.4,7.7-1c13.2-3.1,22.7-10.8,28.2-23.3c0.8-1.8,1.2-3.9,1.6-5.8
		C87.7,53.8,87,53.3,86.1,53.2z M65.3,28.5c1.6-3.2,3.7-5.9,6.6-7.9c1.4-0.9,1.8-0.7,2.1,1c0.2,1.1,0.2,2.2,0.3,3.3
		c0,3.2-0.5,6.3-1.4,9.4c-0.1,0.4-0.3,0.8-0.5,1.2c-0.7,1.2-1.5,1.4-2.7,0.8c-2-1.1-3.4-2.8-4.4-4.8C64.7,30.5,64.8,29.5,65.3,28.5z
		 M64.2,44.8c2.7,0.2,5.4,2.5,6.1,5.4c0.4,1.7-0.3,3.2-1.3,4.5c-1.4,1.9-3.4,2.9-5.4,2.8c-3.4-0.1-6.1-1.9-7.1-4.8
		c-0.5-1.3-0.2-2.5,0.4-3.7C58.3,46.2,61,44.6,64.2,44.8z M48.1,82.4c-21.5-1.2-33-17.9-34.2-27.8c1.1-0.1,2.3-0.2,3.4-0.3
		c2.6-0.3,4.4-1.7,5.4-4.1c0.7-1.8,1.4-3.6,2.2-5.4c1-2.3,0.9-4.7,0.3-7c-1.4-6.6-1.8-13.3-0.5-20c0.1-0.4,0.2-0.7,0.3-1.1
		c2.8,1.4,5.2,3.1,7.4,5.2c2.1,1.9,4,3.9,5.9,6c1.5,1.6,3.3,2.2,5.5,1.9c4.3-0.5,8.7-0.5,13,0.1c0.3,0,0.7,0.2,1.1,0.3
		c-0.2,0.3-0.3,0.4-0.4,0.5c-5.7,5.5-7.8,12.3-6.9,20.1c0.3,2.6,0.8,5.2,2.2,7.5c0.7,1.2,1.6,2.3,3,2.6c0.5,0.1,1.1,0.3,1.5,0.1
		c3.8-1.2,7.5-0.7,11.3,0.1c2.7,0.6,5.5,0.8,8.2-0.3c1.1-0.5,2.2-1.2,3.4-1.9c-0.4,1.2-0.7,2.3-1.1,3.5c2.3-0.8,4.1-2.4,5.9-4
		C81.1,71.5,66,83.4,48.1,82.4z"/>
	<path id="XMLID_84_" class="st1" d="M34.6,31.8c0.4-0.6,0.5-1.6,0.3-2.3c-0.5-1.4-1.2-2.7-2-4c-1.4-2-3-3.9-5.2-5
		c-1.1-0.6-1.5-0.4-1.6,0.8c-0.2,1.2-0.2,2.5-0.3,3.6c0.1,1.6,0.1,3,0.4,4.4c0.3,1.8,0.7,3.7,1.3,5.5c0.7,2,1.9,2.5,3.5,1.2
		C32.3,34.8,33.5,33.3,34.6,31.8z"/>
	<path id="XMLID_85_" class="st1" d="M59.5,69.2c-0.6,2.8-2.9,4.5-5.6,3.8c-1.7-0.4-3.2-2.1-3.3-3.8c-0.1-1.5,0.8-2.8,2.6-3.6
		c0.5-0.2,1-0.4,1.4-0.6c0.4-0.3,1.1-0.8,1.1-1.2c0-0.4-0.6-1-1-1.2c-2.2-1.2-4.6-1.2-7-0.8c-1,0.2-2,0.6-2.9,1.1
		c-0.9,0.5-0.8,1.3,0,1.8c0.8,0.4,1.6,0.7,2.4,1.2c0.6,0.4,1.3,0.8,1.6,1.4c1.2,2,0.2,4.5-2.1,5.5c-2.8,1.2-5.6-0.4-6.3-3.7
		c-0.1-0.3-0.4-0.6-0.7-0.9c-0.2,0.4-0.5,0.7-0.5,1.1c0.1,2.7,2.4,4.9,5,5.2c2.4,0.2,4.3-0.8,5.7-2.9c0.3,0.4,0.5,0.7,0.8,1
		c1.4,1.7,3.8,2.4,5.9,1.7c2.2-0.7,3.8-2.6,4-4.8c0-0.4-0.3-0.8-0.5-1.2C59.9,68.5,59.6,68.8,59.5,69.2z"/>
	<path id="XMLID_102_" class="st1" d="M43.4,52.9c0.9-2.1,0-3.7-1.2-5.3c-2.3-3.1-6.5-3.8-9.7-1.6c-2.4,1.7-3.4,4.4-2.6,6.7
		c1.1,2.9,3.7,4.7,6.8,4.7C39.7,57.5,42.3,55.7,43.4,52.9z M38.2,50.5c-0.6,0-1.1-0.5-1.1-1.1c0-0.6,0.5-1.1,1.1-1.1
		c0.6,0,1.1,0.5,1.1,1.1C39.3,50,38.9,50.5,38.2,50.5z"/>
	<path id="XMLID_105_" class="st1" d="M63.2,55.9c2.1,0.1,4.8-1.5,4.8-4.7c0.1-2.5-1.9-4.6-4.5-4.7c-2.4-0.1-4.7,2-4.8,4.5
		C58.6,53.6,60.5,55.8,63.2,55.9z M65.5,48.3c0.6,0,1.1,0.5,1.1,1.1s-0.5,1.1-1.1,1.1c-0.6,0-1.1-0.5-1.1-1.1S64.9,48.3,65.5,48.3z"
		/>
</g>
</svg>
