<?xml version="1.0" encoding="utf-8"?>
<!-- Generator: Adobe Illustrator 19.0.0, SVG Export Plug-In . SVG Version: 6.00 Build 0)  -->
<svg version="1.1" id="Layer_1" xmlns="http://www.w3.org/2000/svg" xmlns:xlink="http://www.w3.org/1999/xlink" x="0px" y="0px"
	 viewBox="0 0 100 100" style="enable-background:new 0 0 100 100;" xml:space="preserve">
<g id="XMLID_2_">
	<path id="XMLID_81_" d="M52.4,45.9c-0.4,2.2-0.8,4.4-1.2,6.6c-0.4,2.3-0.8,4.7-1.4,7c-0.9,4-3.7,6.2-7.8,6.2c-0.9,0-1.8,0-2.7-0.2
		c-3.7-0.8-5.4-3.7-4.5-7.4c0.9-3.6,3.8-6,7.6-6.4c1.7-0.2,3.4-0.1,5-0.1c0.4,0,0.6-0.1,0.7-0.6c0.2-1.4,0.5-2.8,0.8-4.2
		c0.1-0.4,0.2-0.7,0.7-0.7C50.6,46,51.5,45.9,52.4,45.9z M47.5,53.6c-1.1,0-2-0.1-3,0c-3.8,0.3-5.8,2.1-6.4,5.8
		c-0.2,1.5,0.4,2.9,1.6,3.3c2.3,0.9,5.8,0.4,6.5-3.3c0.2-0.8,0.4-1.7,0.5-2.5C47.1,55.9,47.3,54.9,47.5,53.6z"/>
	<path id="XMLID_78_" d="M89.6,66c-0.7-0.1-1.6-0.1-2.4-0.4c-3.4-0.8-5-3.4-4.2-6.8c0.8-3.6,3.8-6.4,7.6-7c1.6-0.3,3.1-0.4,4.7,0
		c3.7,0.8,5.4,3.5,4.5,7.1c-1.1,4-3.8,6.1-7.7,6.9C91.3,65.9,90.5,65.9,89.6,66z M92.6,53.8c-0.4,0-0.7,0-1.1,0.1
		c-2.7,0.6-4.8,3.1-4.9,5.9c-0.1,2.3,1.1,3.5,3.4,3.6c3.3,0.1,6-2.4,6.2-5.7C96.4,55.3,95.1,53.9,92.6,53.8z"/>
	<path id="XMLID_75_" d="M23.1,65.8c-1.5,0-2.9-0.2-4.3-1c-1.8-1-2.7-2.9-2.5-4.9c0.4-4.6,4-7.6,8.1-8.1c1.4-0.2,2.8-0.2,4.1,0
		c3.6,0.7,5.3,3.4,4.4,7c-0.9,3.5-4,6.2-7.7,6.7C24.5,65.7,23.8,65.7,23.1,65.8z M23.5,63.4c0.4-0.1,0.9-0.1,1.4-0.2
		c3.3-0.8,4.6-3.9,4.5-6.2c-0.1-2.2-2-3.5-4.4-3c-3,0.6-5.2,3.4-5,6.5c0.1,1.5,0.8,2.4,2.3,2.8C22.7,63.3,23.1,63.3,23.5,63.4z"/>
	<path id="XMLID_72_" d="M55.2,59.6c-0.3,1.7,0.6,3.4,2.1,4.1c1.8,0.9,3.7,1,5.6,0.9c0.4,0,0.8-0.1,1.2,0c-0.9,0.7-2,1.1-3.1,1.3
		c-1.7,0.4-3.5,0.3-5.2-0.2c-3.5-1.1-5.1-4.2-3.8-7.9c1.2-3.5,3.8-5.4,7.3-6c1.6-0.3,3.3-0.3,4.9,0.1c1.3,0.4,2.4,1.1,2.7,2.6
		c0.3,1.6-0.2,2.9-1.5,3.8c-1.6,1.1-3.4,1.5-5.3,1.6c-1.4,0-2.8-0.1-4.2-0.2C55.6,59.6,55.4,59.6,55.2,59.6z M55.6,57.4
		c0.1,0.1,0.2,0.1,0.3,0.1c1.5,0.1,3,0.2,4.5,0.1c1,0,2-0.3,2.8-1.1c0.9-1,0.6-2.4-0.6-2.8C59.9,53,56.5,54.8,55.6,57.4z"/>
	<path id="XMLID_71_" d="M83.1,65.7c-1.4,0-2.7,0-3.9,0c-0.3,0-0.6-0.3-0.8-0.5c-1.3-1.3-2.5-2.6-3.7-3.9c-1.6,0.7-3.1,1.6-4.8,2.2
		c-1.6,0.7-3.4,1-5.2,1c2.7-1.9,5.4-3.7,8.1-5.5c-1.7-2.4-3.4-4.7-5.1-7.2c1.2,0,2.2,0,3.2,0c0.2,0,0.3,0.3,0.5,0.4
		c1.1,1.4,2.3,2.7,3.4,4.1c0.1,0.2,0.3,0.3,0.5,0.5c3.4-2.9,6.4-6.1,9.3-9.5c-0.5,2.8-3.1,7.9-7.2,11.9
		C79.1,61.3,81.1,63.5,83.1,65.7z"/>
	<path id="XMLID_70_" d="M16.5,52.2c-0.2,0.6-0.4,1.1-0.6,1.6c-0.1,0.1-0.4,0.2-0.7,0.2c-1.9,0-3.7,0-5.6,0.1
		c-0.7,0-1.5,0.3-2.2,0.6c-0.4,0.2-0.8,0.7-0.8,1.1c-0.1,0.6,0.5,0.9,1,1c1.2,0.3,2.4,0.5,3.5,0.7c0.3,0.1,0.5,0.1,0.8,0.2
		c1.2,0.4,2.3,0.8,2.6,2.2c0.3,1.6-0.1,3-1.3,4.1c-1.1,1-2.5,1.5-3.9,1.7c-3,0.5-6,0.3-8.9-0.4c-0.1,0-0.2-0.1-0.3-0.1
		c0-0.1,0-0.2,0.1-0.3C0.5,63,0.5,63,2.3,63.2c2.1,0.3,4.1,0.5,6.2-0.1c0.7-0.2,1.3-0.5,1.8-1c0.9-0.9,0.6-2-0.6-2.3
		c-0.9-0.3-1.9-0.4-2.9-0.5C6.2,59.2,5.6,59.2,5,59c-1.1-0.3-2-0.8-2.2-2c-0.2-1.3,0.1-2.4,1.2-3.3c1.4-1.1,3-1.6,4.7-1.8
		c2.5-0.3,5-0.2,7.5,0.1C16.2,52.1,16.3,52.1,16.5,52.2z"/>
	<path id="XMLID_69_" d="M85.8,42.7c-1.3-0.2-2.5-0.3-3.6-0.5c0,0,0-0.1,0-0.1c0.9-0.5,1.8-1,2.7-1.6c1-0.6,0.9-0.4,0.5-1.4
		c-0.4-0.9-0.7-1.8-1.2-2.8c1.2,0.6,2.3,1,3.5,1.6c0.6-1.3,1.3-2.6,2-4c0.2,1.5,0.4,2.7,0.6,4.1c1.3-0.4,2.5-0.9,4-1.4
		c-1,1.3-1.9,2.4-2.8,3.6c1,0.8,1.9,1.5,3,2.4c-1.4,0.1-2.7,0.2-4,0.3c-0.1,1.4-0.2,2.8-0.2,4.3c-0.8-1.1-1.5-2.1-2.2-3.2
		c-1.1,1-2.1,1.9-3.1,2.9c0,0-0.1,0-0.1-0.1C85,45.5,85.4,44.2,85.8,42.7z"/>
</g>
</svg>
