<?xml version="1.0" encoding="utf-8"?>
<!-- Generator: Adobe Illustrator 19.0.0, SVG Export Plug-In . SVG Version: 6.00 Build 0)  -->
<svg version="1.1" id="Layer_1" xmlns="http://www.w3.org/2000/svg" xmlns:xlink="http://www.w3.org/1999/xlink" x="0px" y="0px"
	 viewBox="0 0 100 100" style="enable-background:new 0 0 100 100;" xml:space="preserve">
<g id="XMLID_925_">
	<g id="XMLID_249_">
		<rect id="XMLID_16_" x="49.2" y="1.3" transform="matrix(0.498 0.8672 -0.8672 0.498 68.5513 -17.8045)" width="1" height="98"/>
		<rect id="XMLID_15_" x="0.6" y="49.5" transform="matrix(0.866 0.5 -0.5 0.866 31.6982 -18.3012)" width="98.9" height="1"/>
		<path id="XMLID_12_" d="M50,100L6.7,75V25L50,0l43.3,25v50l-0.2,0.1L50,100z M7.7,74.4L50,98.9l42.3-24.4V25.6L50,1.1L7.7,25.6
			V74.4z"/>
		<path id="XMLID_9_" d="M50.3,99.3L7.6,25.4H93L50.3,99.3z M9.3,26.4l41,71l41-71H9.3z"/>
		
			<rect id="XMLID_8_" x="1.2" y="49" transform="matrix(2.912475e-003 1 -1 2.912475e-003 99.4599 -0.823)" width="97.8" height="1"/>
		<polygon id="XMLID_7_" points="7.2,54.9 7.1,53.9 49,49.8 31.7,10.4 32.6,10 50.5,50.7 		"/>
		<polygon id="XMLID_6_" points="92.3,55.2 49,50.7 67.2,10.8 68.1,11.2 50.5,49.8 92.4,54.2 		"/>
		<polygon id="XMLID_5_" points="25.8,86.1 25,85.5 49.7,49.4 75.6,84.7 74.8,85.3 49.8,51.1 		"/>
		<polygon id="XMLID_4_" points="7.4,54.3 6.9,53.4 30,38.8 31.3,10.7 32.3,10.7 31,39.4 		"/>
		<polygon id="XMLID_3_" points="92.5,54.7 69.2,39 69.2,38.7 67.9,11.4 68.9,11.4 70.2,38.4 93.1,53.9 		"/>
		<polygon id="XMLID_2_" points="74.1,85.7 50.3,73.5 26.2,85.6 25.8,84.7 50.3,72.4 74.6,84.8 		"/>
	</g>
</g>
</svg>
